#!OML:ASF H:\Dans Jumps\Project 1\Capture day 1\Session 1\subject.ASF
:FULLY-SPECIFIED
:DEGREES
358
root 0.576863 14.5063 -16.5159 25.6812 -1.331 -1.46563
lowerback 28.4015 0.343293 -0.0824979
upperback 12.9978 0.47276 2.01795
thorax -1.119 0.136688 2.12052
lowerneck -18.4991 0.894256 -1.11665
upperneck 9.27822 1.66621 -1.34719
head 5.80706 0.658805 -0.0817103
rclavicle -3.77691e-015 1.19271e-015
rhumerus -48.7559 -12.9558 -69.5406
rradius 25.0176
rwrist 26.5552
rhand -18.5108 -23.2857
rfingers 7.12502
rthumb 7.77732 -53.1227
lclavicle -3.77691e-015 1.19271e-015
lhumerus -49.9042 -2.00807 86.0403
lradius 15.9724
lwrist 15.9056
lhand -27.9942 -5.8496
lfingers 7.12502
lthumb -1.38032 24.1257
rfemur -76.799 -4.45459 21.994
rtibia 77.7686
rfoot -23.7916 -10.3495
rtoes 0.817606
lfemur -76.0868 7.99825 -23.934
ltibia 77.2088
lfoot -22.9252 13.1694
ltoes -1.87551
359
root 0.574293 14.4907 -16.5154 25.7722 -1.32389 -1.47247
lowerback 28.4371 0.336932 -0.0828438
upperback 12.9501 0.466154 2.02017
thorax -1.18881 0.134043 2.12501
lowerneck -18.5744 0.901439 -1.12464
upperneck 9.2749 1.68073 -1.35847
head 5.81816 0.66433 -0.0822504
rclavicle 6.95746e-015 8.44835e-015
rhumerus -48.8278 -12.9704 -69.4852
rradius 24.9355
rwrist 26.6239
rhand -18.4854 -23.3411
rfingers 7.12502
rthumb 7.80183 -53.1772
lclavicle 6.95746e-015 8.44835e-015
lhumerus -49.865 -1.89326 85.8312
lradius 15.7819
lwrist 15.7516
lhand -27.8697 -5.76499
lfingers 7.12502
lthumb -1.2601 24.211
rfemur -77.0063 -4.44843 22.0201
rtibia 77.9434
rfoot -23.8869 -10.3774
rtoes 0.879937
lfemur -76.3041 8.00378 -23.9426
ltibia 77.3911
lfoot -23.0081 13.1981
ltoes -1.88543
360
root 0.571463 14.4739 -16.5145 25.8729 -1.3172 -1.47965
lowerback 28.4691 0.326641 -0.0930459
upperback 12.8967 0.452674 2.02757
thorax -1.26337 0.127513 2.1428
lowerneck -18.6547 0.915934 -1.14743
upperneck 9.2671 1.70934 -1.37363
head 5.82856 0.675871 -0.0802016
rclavicle 7.15625e-015 1.41634e-014
rhumerus -48.8573 -12.9787 -69.4238
rradius 24.8231
rwrist 26.7305
rhand -18.4672 -23.403
rfingers 7.12502
rthumb 7.81939 -53.2384
lclavicle 7.15625e-015 1.41634e-014
lhumerus -49.7731 -1.71789 85.5886
lradius 15.5555
lwrist 15.5002
lhand -27.7013 -5.67694
lfingers 7.12502
lthumb -1.09745 24.3
rfemur -77.2286 -4.43989 22.0467
rtibia 78.1323
rfoot -24.0041 -10.403
rtoes 0.944609
lfemur -76.5383 8.00917 -23.9519
ltibia 77.5906
lfoot -23.1174 13.2199
ltoes -1.85051
361
root 0.568282 14.4557 -16.5133 25.981 -1.31378 -1.4871
lowerback 28.5008 0.314778 -0.113191
upperback 12.8358 0.435143 2.03822
thorax -1.34607 0.118594 2.17103
lowerneck -18.7469 0.932223 -1.18734
upperneck 9.26608 1.74417 -1.38243
head 5.84286 0.690171 -0.0726569
rclavicle -1.98785e-015 -1.54058e-014
rhumerus -48.8472 -12.9904 -69.3558
rradius 24.6773
rwrist 26.86
rhand -18.4553 -23.4736
rfingers 7.12502
rthumb 7.83094 -53.3086
lclavicle -1.98785e-015 -1.54058e-014
lhumerus -49.623 -1.47251 85.2972
lradius 15.2867
lwrist 15.1324
lhand -27.4769 -5.58027
lfingers 7.12502
lthumb -0.880648 24.3977
rfemur -77.4635 -4.42534 22.0716
rtibia 78.3386
rfoot -24.1545 -10.4124
rtoes 1.06233
lfemur -76.7866 8.01474 -23.96
ltibia 77.8087
lfoot -23.2556 13.2394
ltoes -1.77017
362
root 0.5647 14.436 -16.5115 26.0966 -1.31267 -1.49476
lowerback 28.531 0.302096 -0.143063
upperback 12.7684 0.414549 2.0528
thorax -1.43531 0.107773 2.21009
lowerneck -18.8447 0.948143 -1.25352
upperneck 9.26405 1.78333 -1.37699
head 5.85732 0.706742 -0.0558756
rclavicle 7.7526e-015 -1.42131e-014
rhumerus -48.7944 -13.007 -69.2841
rradius 24.506
rwrist 26.9841
rhand -18.4517 -23.56
rfingers 7.12502
rthumb 7.83442 -53.3948
lclavicle 7.7526e-015 -1.42131e-014
lhumerus -49.4108 -1.16739 84.9658
lradius 14.9862
lwrist 14.6795
lhand -27.2054 -5.48483
lfingers 7.12502
lthumb -0.618472 24.494
rfemur -77.7115 -4.40627 22.0959
rtibia 78.565
rfoot -24.3479 -10.4035
rtoes 1.23738
lfemur -77.0484 8.01884 -23.9653
ltibia 78.0468
lfoot -23.4189 13.2672
ltoes -1.68737
363
root 0.560727 14.4147 -16.5091 26.2183 -1.3145 -1.50124
lowerback 28.5625 0.292074 -0.176103
upperback 12.6909 0.396618 2.06654
thorax -1.53664 0.0983782 2.24933
lowerneck -18.9519 0.963651 -1.32151
upperneck 9.27307 1.82235 -1.36741
head 5.87673 0.723335 -0.0373882
rclavicle -2.68359e-015 -1.85367e-014
rhumerus -48.7141 -13.0462 -69.2108
rradius 24.3181
rwrist 27.073
rhand -18.4641 -23.6556
rfingers 7.12502
rthumb 7.82237 -53.4909
lclavicle -2.68359e-015 -1.85367e-014
lhumerus -49.1319 -0.800526 84.5717
lradius 14.6493
lwrist 14.145
lhand -26.8957 -5.4114
lfingers 7.12502
lthumb -0.319374 24.5681
rfemur -77.973 -4.38332 22.1202
rtibia 78.8128
rfoot -24.5895 -10.3933
rtoes 1.40473
lfemur -77.3223 8.02015 -23.9685
ltibia 78.3053
lfoot -23.6082 13.3112
ltoes -1.61485
364
root 0.556362 14.3919 -16.5058 26.3388 -1.31491 -1.50976
lowerback 28.6027 0.285705 -0.201674
upperback 12.604 0.385087 2.07739
thorax -1.65269 0.0927336 2.27938
lowerneck -19.076 0.969688 -1.39088
upperneck 9.30381 1.84733 -1.33944
head 5.90553 0.734201 -0.0140699
rclavicle -6.95746e-015 -1.2921e-015
rhumerus -48.6082 -13.1105 -69.1494
rradius 24.1173
rwrist 27.0969
rhand -18.4975 -23.7618
rfingers 7.12502
rthumb 7.79015 -53.5983
lclavicle -6.95746e-015 -1.2921e-015
lhumerus -48.7842 -0.408926 84.1354
lradius 14.297
lwrist 13.5945
lhand -26.5697 -5.35039
lfingers 7.12502
lthumb -0.00447558 24.6294
rfemur -78.2384 -4.35755 22.1482
rtibia 79.0822
rfoot -24.8948 -10.391
rtoes 1.53732
lfemur -77.5996 8.01812 -23.9638
ltibia 78.5842
lfoot -23.8179 13.389
ltoes -1.60818
365
root 0.551697 14.3679 -16.5015 26.453 -1.31753 -1.51515
lowerback 28.6567 0.286615 -0.222273
upperback 12.5055 0.383793 2.08292
thorax -1.78865 0.0927369 2.29789
lowerneck -19.2066 0.966298 -1.45122
upperneck 9.35372 1.85648 -1.3008
head 5.94146 0.738315 0.00970004
rclavicle -1.2424e-014 -8.29926e-015
rhumerus -48.4845 -13.2157 -69.0923
rradius 23.9046
rwrist 27.0575
rhand -18.5716 -23.8634
rfingers 7.12502
rthumb 7.71868 -53.7026
lclavicle -1.2424e-014 -8.29926e-015
lhumerus -48.3617 0.00877768 83.6514
lradius 13.9284
lwrist 13.0458
lhand -26.2466 -5.29754
lfingers 7.12502
lthumb 0.307557 24.682
rfemur -78.5011 -4.32966 22.1731
rtibia 79.3719
rfoot -25.2621 -10.4066
rtoes 1.59367
lfemur -77.8719 8.01178 -23.9567
ltibia 78.8805
lfoot -24.0451 13.5087
ltoes -1.69733
